#!OML:ASF H:\LiuWeirdWalks\Patient Classification 1\Patient 1\Session 1\male.ASF
:FULLY-SPECIFIED
:DEGREES
1252
root 2.36504 17.9703 3.15242 1.5228 6.38314 -1.46581
lowerback 3.81892 -1.32788 -1.0272
upperback -2.24765 -1.711 2.95883
thorax -4.34584 -0.773198 3.7711
lowerneck -19.4367 -3.28495 1.16673
upperneck 17.9179 -4.57581 -1.32862
head 8.74001 -2.21571 -1.23694
rclavicle -3.10228e-014 1.82882e-014
rhumerus -17.0001 -28.0546 -6.42383
rradius 23.2512
rwrist 9.33871
rhand -12.3671 -9.47615
rfingers 7.12502
rthumb 13.7032 -39.005
lclavicle -3.10228e-014 1.82882e-014
lhumerus -25.3766 30.1619 11.4231
lradius 22.3622
lwrist -12.7139
lhand -10.2654 9.3727
lfingers 7.12502
lthumb 15.728 38.7536
rfemur -6.65948 -3.58981 20.582
rtibia 31.6441
rfoot -16.8493 -29.3788
rtoes -1.37454
lfemur -4.81356 -1.64454 -15.9586
ltibia 27.6802
lfoot -13.995 19.963
ltoes -6.61303
1253
root 2.3714 17.9673 3.158 1.47109 6.19288 -1.49927
lowerback 3.7725 -1.28407 -0.987897
upperback -2.2258 -1.65124 2.94728
thorax -4.30236 -0.745694 3.73049
lowerneck -19.5558 -3.3038 1.06137
upperneck 18.1649 -4.59842 -1.22138
head 8.85103 -2.21875 -1.19364
rclavicle 3.50606e-014 -1.27222e-014
rhumerus -16.9805 -28.1949 -6.37308
rradius 23.1161
rwrist 9.45503
rhand -12.2394 -9.55123
rfingers 7.12502
rthumb 13.8263 -39.0717
lclavicle 3.50606e-014 -1.27222e-014
lhumerus -25.3212 30.2564 11.3183
lradius 22.3461
lwrist -12.7713
lhand -10.3412 9.34898
lfingers 7.12502
lthumb 15.6551 38.7356
rfemur -6.59988 -3.54395 20.5821
rtibia 31.65
rfoot -16.8704 -29.2612
rtoes -1.39498
lfemur -4.68116 -1.68494 -15.9788
ltibia 27.6587
lfoot -14.0416 20.1916
ltoes -6.54042
1254
root 2.37736 17.9644 3.16363 1.43115 5.98526 -1.53771
lowerback 3.71433 -1.23643 -0.943597
upperback -2.21316 -1.586 2.93638
thorax -4.26221 -0.715425 3.68732
lowerneck -19.6361 -3.29628 1.02706
upperneck 18.3531 -4.59119 -1.17538
head 8.93229 -2.21038 -1.17671
rclavicle 9.61621e-015 8.74653e-015
rhumerus -16.9487 -28.3352 -6.33459
rradius 22.9917
rwrist 9.55899
rhand -12.1767 -9.58322
rfingers 7.12502
rthumb 13.8867 -39.0996
lclavicle 9.61621e-015 8.74653e-015
lhumerus -25.2762 30.2914 11.2148
lradius 22.3466
lwrist -12.808
lhand -10.4115 9.3227
lfingers 7.12502
lthumb 15.5873 38.7146
rfemur -6.56218 -3.49415 20.5873
rtibia 31.6678
rfoot -16.8997 -29.1281
rtoes -1.41668
lfemur -4.55198 -1.7211 -15.9901
ltibia 27.6236
lfoot -14.0933 20.4152
ltoes -6.45811
1255
root 2.38303 17.9615 3.16972 1.40195 5.76073 -1.56973
lowerback 3.64643 -1.18826 -0.909345
upperback -2.20827 -1.52059 2.92535
thorax -4.22426 -0.684645 3.6497
lowerneck -19.6687 -3.25431 1.08799
upperneck 18.441 -4.54327 -1.21797
head 8.96634 -2.18745 -1.1971
rclavicle -3.56694e-014 7.15625e-015
rhumerus -16.8974 -28.4679 -6.31395
rradius 22.8818
rwrist 9.66778
rhand -12.1557 -9.57991
rfingers 7.12502
rthumb 13.907 -39.0949
lclavicle -3.56694e-014 7.15625e-015
lhumerus -25.2474 30.2584 11.1099
lradius 22.3609
lwrist -12.8113
lhand -10.4891 9.31012
lfingers 7.12502
lthumb 15.5126 38.7078
rfemur -6.54003 -3.44324 20.5831
rtibia 31.6937
rfoot -16.9265 -28.9772
rtoes -1.45474
lfemur -4.42531 -1.74295 -16.0057
ltibia 27.5801
lfoot -14.149 20.631
ltoes -6.37135
1256
root 2.38861 17.9587 3.17606 1.38603 5.53261 -1.59135
lowerback 3.56332 -1.14264 -0.884205
upperback -2.20605 -1.45927 2.91274
thorax -4.17991 -0.655709 3.61561
lowerneck -19.6516 -3.19457 1.20812
upperneck 18.4126 -4.47223 -1.32458
head 8.94879 -2.15812 -1.24267
rclavicle -2.72087e-015 -2.14687e-014
rhumerus -16.836 -28.5587 -6.31201
rradius 22.7984
rwrist 9.74409
rhand -12.1609 -9.5522
rfingers 7.12502
rthumb 13.9019 -39.0675
lclavicle -2.72087e-015 -2.14687e-014
lhumerus -25.2289 30.2781 10.9829
lradius 22.3593
lwrist -12.8774
lhand -10.5819 9.29178
lfingers 7.12502
lthumb 15.4233 38.6964
rfemur -6.53365 -3.40836 20.5625
rtibia 31.724
rfoot -16.9437 -28.8039
rtoes -1.51219
lfemur -4.3088 -1.75089 -16.0307
ltibia 27.5335
lfoot -14.2046 20.8329
ltoes -6.29187
